<svg width="562" height="151" viewBox="0 0 562 151" fill="none" xmlns="http://www.w3.org/2000/svg">
<path d="M35.904 54.536C30.976 54.536 27.2 56.04 24.576 59.048C21.952 62.056 20.64 66.312 20.64 71.816C20.64 77.384 22.08 81.672 24.96 84.68C27.904 87.688 31.84 89.192 36.768 89.192C39.392 89.192 41.6 88.84 43.392 88.136C45.248 87.432 47.008 86.632 48.672 85.736C49.76 86.632 50.592 87.72 51.168 89C51.808 90.216 52.128 91.656 52.128 93.32C52.128 95.944 50.656 98.184 47.712 100.04C44.832 101.832 40.416 102.728 34.464 102.728C30.176 102.728 26.144 102.12 22.368 100.904C18.592 99.688 15.296 97.832 12.48 95.336C9.664 92.776 7.424 89.576 5.76 85.736C4.16 81.832 3.36 77.192 3.36 71.816C3.36 66.824 4.128 62.44 5.664 58.664C7.264 54.824 9.408 51.592 12.096 48.968C14.848 46.344 18.048 44.36 21.696 43.016C25.344 41.672 29.248 41 33.408 41C39.296 41 43.84 41.96 47.04 43.88C50.304 45.8 51.936 48.264 51.936 51.272C51.936 52.936 51.52 54.376 50.688 55.592C49.856 56.808 48.896 57.768 47.808 58.472C46.144 57.384 44.352 56.456 42.432 55.688C40.576 54.92 38.4 54.536 35.904 54.536ZM106.905 77.672C106.905 81.64 106.297 85.192 105.081 88.328C103.865 91.4 102.137 93.992 99.897 96.104C97.721 98.216 95.097 99.816 92.025 100.904C88.953 101.992 85.529 102.536 81.753 102.536C77.977 102.536 74.553 101.96 71.481 100.808C68.409 99.656 65.753 98.024 63.513 95.912C61.337 93.736 59.641 91.112 58.425 88.04C57.209 84.968 56.601 81.512 56.601 77.672C56.601 73.896 57.209 70.472 58.425 67.4C59.641 64.328 61.337 61.736 63.513 59.624C65.753 57.448 68.409 55.784 71.481 54.632C74.553 53.48 77.977 52.904 81.753 52.904C85.529 52.904 88.953 53.512 92.025 54.728C95.097 55.88 97.721 57.544 99.897 59.72C102.137 61.832 103.865 64.424 105.081 67.496C106.297 70.568 106.905 73.96 106.905 77.672ZM73.305 77.672C73.305 81.576 74.041 84.584 75.513 86.696C77.049 88.744 79.161 89.768 81.849 89.768C84.537 89.768 86.585 88.712 87.993 86.6C89.465 84.488 90.201 81.512 90.201 77.672C90.201 73.832 89.465 70.888 87.993 68.84C86.521 66.728 84.441 65.672 81.753 65.672C79.065 65.672 76.985 66.728 75.513 68.84C74.041 70.888 73.305 73.832 73.305 77.672ZM131.475 100.904C130.771 101.032 129.715 101.192 128.307 101.384C126.963 101.64 125.587 101.768 124.179 101.768C122.771 101.768 121.491 101.672 120.339 101.48C119.251 101.288 118.323 100.904 117.555 100.328C116.787 99.752 116.179 98.984 115.731 98.024C115.347 97 115.155 95.688 115.155 94.088V38.408C115.859 38.28 116.883 38.12 118.227 37.928C119.635 37.672 121.043 37.544 122.451 37.544C123.859 37.544 125.107 37.64 126.195 37.832C127.347 38.024 128.307 38.408 129.075 38.984C129.843 39.56 130.419 40.36 130.803 41.384C131.251 42.344 131.475 43.624 131.475 45.224V100.904ZM190.061 77.672C190.061 81.64 189.453 85.192 188.237 88.328C187.021 91.4 185.293 93.992 183.053 96.104C180.877 98.216 178.253 99.816 175.181 100.904C172.109 101.992 168.685 102.536 164.909 102.536C161.133 102.536 157.709 101.96 154.637 100.808C151.565 99.656 148.909 98.024 146.669 95.912C144.493 93.736 142.797 91.112 141.581 88.04C140.365 84.968 139.757 81.512 139.757 77.672C139.757 73.896 140.365 70.472 141.581 67.4C142.797 64.328 144.493 61.736 146.669 59.624C148.909 57.448 151.565 55.784 154.637 54.632C157.709 53.48 161.133 52.904 164.909 52.904C168.685 52.904 172.109 53.512 175.181 54.728C178.253 55.88 180.877 57.544 183.053 59.72C185.293 61.832 187.021 64.424 188.237 67.496C189.453 70.568 190.061 73.96 190.061 77.672ZM156.461 77.672C156.461 81.576 157.197 84.584 158.669 86.696C160.205 88.744 162.317 89.768 165.005 89.768C167.693 89.768 169.741 88.712 171.149 86.6C172.621 84.488 173.357 81.512 173.357 77.672C173.357 73.832 172.621 70.888 171.149 68.84C169.677 66.728 167.597 65.672 164.909 65.672C162.221 65.672 160.141 66.728 158.669 68.84C157.197 70.888 156.461 73.832 156.461 77.672ZM214.343 100.904C213.703 101.096 212.679 101.288 211.271 101.48C209.927 101.672 208.519 101.768 207.047 101.768C205.639 101.768 204.359 101.672 203.207 101.48C202.119 101.288 201.191 100.904 200.423 100.328C199.655 99.752 199.047 98.984 198.599 98.024C198.215 97 198.023 95.688 198.023 94.088V65.288C198.023 63.816 198.279 62.568 198.791 61.544C199.367 60.456 200.167 59.496 201.191 58.664C202.215 57.832 203.463 57.096 204.935 56.456C206.471 55.752 208.103 55.144 209.831 54.632C211.559 54.12 213.351 53.736 215.207 53.48C217.063 53.16 218.919 53 220.775 53C223.847 53 226.279 53.608 228.071 54.824C229.863 55.976 230.759 57.896 230.759 60.584C230.759 61.48 230.631 62.376 230.375 63.272C230.119 64.104 229.799 64.872 229.415 65.576C228.071 65.576 226.695 65.64 225.287 65.768C223.879 65.896 222.503 66.088 221.159 66.344C219.815 66.6 218.535 66.888 217.319 67.208C216.167 67.464 215.175 67.784 214.343 68.168V100.904ZM298.855 42.824C299.303 43.528 299.687 44.488 300.007 45.704C300.391 46.856 300.583 48.072 300.583 49.352C300.583 51.848 300.039 53.64 298.951 54.728C297.927 55.752 296.519 56.264 294.727 56.264H274.567V67.112H295.591C296.103 67.816 296.519 68.744 296.839 69.896C297.223 71.048 297.415 72.264 297.415 73.544C297.415 75.976 296.871 77.736 295.783 78.824C294.759 79.848 293.351 80.36 291.559 80.36H274.759V100.616C274.055 100.808 272.935 101 271.399 101.192C269.927 101.384 268.455 101.48 266.983 101.48C265.511 101.48 264.199 101.352 263.047 101.096C261.959 100.904 261.031 100.52 260.263 99.944C259.495 99.368 258.919 98.568 258.535 97.544C258.151 96.52 257.959 95.176 257.959 93.512V51.752C257.959 49 258.759 46.824 260.359 45.224C261.959 43.624 264.135 42.824 266.887 42.824H298.855ZM324.319 100.904C323.615 101.032 322.559 101.192 321.151 101.384C319.807 101.64 318.431 101.768 317.023 101.768C315.615 101.768 314.335 101.672 313.183 101.48C312.095 101.288 311.167 100.904 310.399 100.328C309.631 99.752 309.023 98.984 308.575 98.024C308.191 97 307.999 95.688 307.999 94.088V38.408C308.703 38.28 309.727 38.12 311.071 37.928C312.479 37.672 313.887 37.544 315.295 37.544C316.703 37.544 317.951 37.64 319.039 37.832C320.191 38.024 321.151 38.408 321.919 38.984C322.687 39.56 323.263 40.36 323.647 41.384C324.095 42.344 324.319 43.624 324.319 45.224V100.904ZM334.233 41.384C334.233 38.952 335.033 36.904 336.633 35.24C338.297 33.576 340.473 32.744 343.161 32.744C345.849 32.744 347.993 33.576 349.593 35.24C351.257 36.904 352.089 38.952 352.089 41.384C352.089 43.816 351.257 45.864 349.593 47.528C347.993 49.192 345.849 50.024 343.161 50.024C340.473 50.024 338.297 49.192 336.633 47.528C335.033 45.864 334.233 43.816 334.233 41.384ZM351.321 100.904C350.617 101.032 349.561 101.192 348.153 101.384C346.809 101.64 345.433 101.768 344.025 101.768C342.617 101.768 341.337 101.672 340.185 101.48C339.097 101.288 338.169 100.904 337.401 100.328C336.633 99.752 336.025 98.984 335.577 98.024C335.193 97 335.001 95.688 335.001 94.088V55.016C335.705 54.888 336.729 54.728 338.073 54.536C339.481 54.28 340.889 54.152 342.297 54.152C343.705 54.152 344.953 54.248 346.041 54.44C347.193 54.632 348.153 55.016 348.921 55.592C349.689 56.168 350.265 56.968 350.649 57.992C351.097 58.952 351.321 60.232 351.321 61.832V100.904ZM383.119 52.904C386.959 52.904 390.511 53.416 393.775 54.44C397.103 55.4 399.951 56.904 402.319 58.952C404.687 61 406.543 63.592 407.887 66.728C409.231 69.8 409.903 73.48 409.903 77.768C409.903 81.864 409.327 85.448 408.175 88.52C407.023 91.592 405.391 94.184 403.279 96.296C401.167 98.344 398.607 99.88 395.599 100.904C392.655 101.928 389.359 102.44 385.711 102.44C382.959 102.44 380.399 102.024 378.031 101.192V117.128C377.391 117.32 376.367 117.512 374.959 117.704C373.551 117.96 372.111 118.088 370.639 118.088C369.231 118.088 367.951 117.992 366.799 117.8C365.711 117.608 364.783 117.224 364.015 116.648C363.247 116.072 362.671 115.272 362.287 114.248C361.903 113.288 361.711 112.008 361.711 110.408V64.328C361.711 62.6 362.063 61.192 362.767 60.104C363.535 59.016 364.559 58.024 365.839 57.128C367.823 55.848 370.287 54.824 373.231 54.056C376.175 53.288 379.471 52.904 383.119 52.904ZM383.311 89.576C389.903 89.576 393.199 85.64 393.199 77.768C393.199 73.672 392.367 70.632 390.703 68.648C389.103 66.664 386.767 65.672 383.695 65.672C382.479 65.672 381.391 65.832 380.431 66.152C379.471 66.408 378.639 66.728 377.935 67.112V88.232C378.703 88.616 379.535 88.936 380.431 89.192C381.327 89.448 382.287 89.576 383.311 89.576ZM439.275 52.904C443.115 52.904 446.667 53.416 449.931 54.44C453.259 55.4 456.107 56.904 458.475 58.952C460.843 61 462.699 63.592 464.043 66.728C465.387 69.8 466.059 73.48 466.059 77.768C466.059 81.864 465.483 85.448 464.331 88.52C463.179 91.592 461.547 94.184 459.435 96.296C457.323 98.344 454.763 99.88 451.755 100.904C448.811 101.928 445.515 102.44 441.867 102.44C439.115 102.44 436.555 102.024 434.187 101.192V117.128C433.547 117.32 432.523 117.512 431.115 117.704C429.707 117.96 428.267 118.088 426.795 118.088C425.387 118.088 424.107 117.992 422.955 117.8C421.867 117.608 420.939 117.224 420.171 116.648C419.403 116.072 418.827 115.272 418.443 114.248C418.059 113.288 417.867 112.008 417.867 110.408V64.328C417.867 62.6 418.219 61.192 418.923 60.104C419.691 59.016 420.715 58.024 421.995 57.128C423.979 55.848 426.443 54.824 429.387 54.056C432.331 53.288 435.627 52.904 439.275 52.904ZM439.467 89.576C446.059 89.576 449.355 85.64 449.355 77.768C449.355 73.672 448.523 70.632 446.859 68.648C445.259 66.664 442.923 65.672 439.851 65.672C438.635 65.672 437.547 65.832 436.587 66.152C435.627 66.408 434.795 66.728 434.091 67.112V88.232C434.859 88.616 435.691 88.936 436.587 89.192C437.483 89.448 438.443 89.576 439.467 89.576ZM498.695 102.536C494.919 102.536 491.399 102.024 488.135 101C484.935 99.912 482.119 98.312 479.687 96.2C477.319 94.088 475.431 91.432 474.023 88.232C472.679 85.032 472.007 81.288 472.007 77C472.007 72.776 472.679 69.16 474.023 66.152C475.431 63.08 477.255 60.584 479.495 58.664C481.735 56.68 484.295 55.24 487.175 54.344C490.055 53.384 492.999 52.904 496.007 52.904C499.399 52.904 502.471 53.416 505.223 54.44C508.039 55.464 510.439 56.872 512.423 58.664C514.471 60.456 516.039 62.6 517.127 65.096C518.279 67.592 518.855 70.312 518.855 73.256C518.855 75.432 518.247 77.096 517.031 78.248C515.815 79.4 514.119 80.136 511.943 80.456L488.231 84.008C488.935 86.12 490.375 87.72 492.551 88.808C494.727 89.832 497.223 90.344 500.039 90.344C502.663 90.344 505.127 90.024 507.431 89.384C509.799 88.68 511.719 87.88 513.191 86.984C514.215 87.624 515.079 88.52 515.783 89.672C516.487 90.824 516.839 92.04 516.839 93.32C516.839 96.2 515.495 98.344 512.807 99.752C510.759 100.84 508.455 101.576 505.895 101.96C503.335 102.344 500.935 102.536 498.695 102.536ZM496.007 64.808C494.471 64.808 493.127 65.064 491.975 65.576C490.887 66.088 489.991 66.76 489.287 67.592C488.583 68.36 488.039 69.256 487.655 70.28C487.335 71.24 487.143 72.232 487.079 73.256L503.495 70.568C503.303 69.288 502.599 68.008 501.383 66.728C500.167 65.448 498.375 64.808 496.007 64.808ZM543.031 100.904C542.391 101.096 541.367 101.288 539.959 101.48C538.615 101.672 537.207 101.768 535.735 101.768C534.327 101.768 533.047 101.672 531.895 101.48C530.807 101.288 529.879 100.904 529.111 100.328C528.343 99.752 527.735 98.984 527.287 98.024C526.903 97 526.711 95.688 526.711 94.088V65.288C526.711 63.816 526.967 62.568 527.479 61.544C528.055 60.456 528.855 59.496 529.879 58.664C530.903 57.832 532.151 57.096 533.623 56.456C535.159 55.752 536.791 55.144 538.519 54.632C540.247 54.12 542.039 53.736 543.895 53.48C545.751 53.16 547.607 53 549.463 53C552.535 53 554.967 53.608 556.759 54.824C558.551 55.976 559.447 57.896 559.447 60.584C559.447 61.48 559.319 62.376 559.063 63.272C558.807 64.104 558.487 64.872 558.103 65.576C556.759 65.576 555.383 65.64 553.975 65.768C552.567 65.896 551.191 66.088 549.847 66.344C548.503 66.6 547.223 66.888 546.007 67.208C544.855 67.464 543.863 67.784 543.031 68.168V100.904Z" fill="#232323"/>
<path d="M376.503 43.3917C374.748 39.8839 375.541 28.7115 375.541 28.7115C375.985 12.6633 360.565 16.0727 356.514 17.244L348.986 10L330.308 28.9249L327.572 31.6654C325.65 33.5842 325.467 36.5336 327.154 38.2239L340.089 51.1608C340.863 51.9356 341.901 52.3139 342.983 52.3139C344.263 52.3139 345.604 51.7842 346.645 50.7446L348.971 48.4157L348.995 48.4369L368.171 30.0174C369.643 33.277 369.002 38.5855 369.002 38.5855C368.849 44.6038 372.783 45.7645 372.783 45.7645C379.004 48.5822 376.503 43.3917 376.503 43.3917ZM362.263 31.8561L347.423 46.0338C346.297 47.1098 344.765 47.3277 344 46.5272C343.234 45.7236 343.521 44.2043 344.647 43.1314L359.486 28.9506C360.612 27.8777 362.145 27.6583 362.912 28.4573C363.677 29.2623 363.386 30.7832 362.263 31.8561Z" fill="#232323"/>
</svg>
