<svg width="364" height="48" viewBox="0 0 364 48" fill="none" xmlns="http://www.w3.org/2000/svg">
<path d="M17.76 19.384C17.248 18.4453 16.544 17.7307 15.648 17.24C14.752 16.7493 13.7067 16.504 12.512 16.504C11.1893 16.504 10.016 16.8027 8.992 17.4C7.968 17.9973 7.168 18.8507 6.592 19.96C6.016 21.0693 5.728 22.3493 5.728 23.8C5.728 25.2933 6.016 26.5947 6.592 27.704C7.18933 28.8133 8.01067 29.6667 9.056 30.264C10.1013 30.8613 11.3173 31.16 12.704 31.16C14.4107 31.16 15.808 30.712 16.896 29.816C17.984 28.8987 18.6987 27.6293 19.04 26.008H11.36V22.584H23.456V26.488C23.1573 28.0453 22.5173 29.4853 21.536 30.808C20.5547 32.1307 19.2853 33.1973 17.728 34.008C16.192 34.7973 14.464 35.192 12.544 35.192C10.3893 35.192 8.43733 34.712 6.688 33.752C4.96 32.7707 3.59467 31.416 2.592 29.688C1.61067 27.96 1.12 25.9973 1.12 23.8C1.12 21.6027 1.61067 19.64 2.592 17.912C3.59467 16.1627 4.96 14.808 6.688 13.848C8.43733 12.8667 10.3787 12.376 12.512 12.376C15.0293 12.376 17.216 12.9947 19.072 14.232C20.928 15.448 22.208 17.1653 22.912 19.384H17.76ZM32.8505 16.28V21.88H40.3705V25.432H32.8505V31.352H41.3305V35H28.3705V12.632H41.3305V16.28H32.8505ZM58.5218 35L53.5938 26.296H51.4818V35H47.0018V12.664H55.3858C57.1138 12.664 58.5858 12.9733 59.8018 13.592C61.0178 14.1893 61.9244 15.0107 62.5218 16.056C63.1404 17.08 63.4498 18.232 63.4498 19.512C63.4498 20.984 63.0231 22.3173 62.1698 23.512C61.3164 24.6853 60.0471 25.496 58.3618 25.944L63.7058 35H58.5218ZM51.4818 22.936H55.2258C56.4418 22.936 57.3484 22.648 57.9458 22.072C58.5431 21.4747 58.8418 20.6533 58.8418 19.608C58.8418 18.584 58.5431 17.7947 57.9458 17.24C57.3484 16.664 56.4418 16.376 55.2258 16.376H51.4818V22.936ZM82.7978 30.744H73.9018L72.4298 35H67.7258L75.7578 12.632H80.9738L89.0058 35H84.2698L82.7978 30.744ZM81.5818 27.16L78.3498 17.816L75.1178 27.16H81.5818ZM101.416 12.664C103.763 12.664 105.821 13.1227 107.592 14.04C109.384 14.9573 110.76 16.2693 111.72 17.976C112.701 19.6613 113.192 21.624 113.192 23.864C113.192 26.104 112.701 28.0667 111.72 29.752C110.76 31.416 109.384 32.7067 107.592 33.624C105.821 34.5413 103.763 35 101.416 35H93.608V12.664H101.416ZM101.256 31.192C103.603 31.192 105.416 30.552 106.696 29.272C107.976 27.992 108.616 26.1893 108.616 23.864C108.616 21.5387 107.976 19.7253 106.696 18.424C105.416 17.1013 103.603 16.44 101.256 16.44H98.088V31.192H101.256ZM128.514 35.224C126.423 35.224 124.503 34.7333 122.754 33.752C121.004 32.7707 119.618 31.416 118.594 29.688C117.57 27.9387 117.058 25.9653 117.058 23.768C117.058 21.592 117.57 19.64 118.594 17.912C119.618 16.1627 121.004 14.7973 122.754 13.816C124.503 12.8347 126.423 12.344 128.514 12.344C130.626 12.344 132.546 12.8347 134.274 13.816C136.023 14.7973 137.399 16.1627 138.402 17.912C139.426 19.64 139.938 21.592 139.938 23.768C139.938 25.9653 139.426 27.9387 138.402 29.688C137.399 31.416 136.023 32.7707 134.274 33.752C132.524 34.7333 130.604 35.224 128.514 35.224ZM128.514 31.224C129.858 31.224 131.042 30.9253 132.066 30.328C133.09 29.7093 133.89 28.8347 134.466 27.704C135.042 26.5733 135.33 25.2613 135.33 23.768C135.33 22.2747 135.042 20.9733 134.466 19.864C133.89 18.7333 133.09 17.8693 132.066 17.272C131.042 16.6747 129.858 16.376 128.514 16.376C127.17 16.376 125.975 16.6747 124.93 17.272C123.906 17.8693 123.106 18.7333 122.53 19.864C121.954 20.9733 121.666 22.2747 121.666 23.768C121.666 25.2613 121.954 26.5733 122.53 27.704C123.106 28.8347 123.906 29.7093 124.93 30.328C125.975 30.9253 127.17 31.224 128.514 31.224ZM156.391 35L151.463 26.296H149.351V35H144.871V12.664H153.255C154.983 12.664 156.455 12.9733 157.671 13.592C158.887 14.1893 159.793 15.0107 160.391 16.056C161.009 17.08 161.319 18.232 161.319 19.512C161.319 20.984 160.892 22.3173 160.039 23.512C159.185 24.6853 157.916 25.496 156.231 25.944L161.575 35H156.391ZM149.351 22.936H153.095C154.311 22.936 155.217 22.648 155.815 22.072C156.412 21.4747 156.711 20.6533 156.711 19.608C156.711 18.584 156.412 17.7947 155.815 17.24C155.217 16.664 154.311 16.376 153.095 16.376H149.351V22.936ZM184.004 12.664C186.35 12.664 188.409 13.1227 190.18 14.04C191.972 14.9573 193.348 16.2693 194.308 17.976C195.289 19.6613 195.78 21.624 195.78 23.864C195.78 26.104 195.289 28.0667 194.308 29.752C193.348 31.416 191.972 32.7067 190.18 33.624C188.409 34.5413 186.35 35 184.004 35H176.196V12.664H184.004ZM183.844 31.192C186.19 31.192 188.004 30.552 189.284 29.272C190.564 27.992 191.204 26.1893 191.204 23.864C191.204 21.5387 190.564 19.7253 189.284 18.424C188.004 17.1013 186.19 16.44 183.844 16.44H180.676V31.192H183.844ZM205.213 16.28V21.88H212.733V25.432H205.213V31.352H213.693V35H200.733V12.632H213.693V16.28H205.213Z" fill="#EDEDED"/>
<rect x="220" width="144" height="48" rx="10" fill="#EDEDED"/>
<path d="M234.92 35.224C233.363 35.224 231.955 34.9573 230.696 34.424C229.459 33.8907 228.477 33.1227 227.752 32.12C227.027 31.1173 226.653 29.9333 226.632 28.568H231.432C231.496 29.4853 231.816 30.2107 232.392 30.744C232.989 31.2773 233.8 31.544 234.824 31.544C235.869 31.544 236.691 31.2987 237.288 30.808C237.885 30.296 238.184 29.6347 238.184 28.824C238.184 28.1627 237.981 27.6187 237.576 27.192C237.171 26.7653 236.659 26.4347 236.04 26.2C235.443 25.944 234.611 25.6667 233.544 25.368C232.093 24.9413 230.909 24.5253 229.992 24.12C229.096 23.6933 228.317 23.064 227.656 22.232C227.016 21.3787 226.696 20.248 226.696 18.84C226.696 17.5173 227.027 16.3653 227.688 15.384C228.349 14.4027 229.277 13.656 230.472 13.144C231.667 12.6107 233.032 12.344 234.568 12.344C236.872 12.344 238.739 12.9093 240.168 14.04C241.619 15.1493 242.419 16.7067 242.568 18.712H237.64C237.597 17.944 237.267 17.3147 236.648 16.824C236.051 16.312 235.251 16.056 234.248 16.056C233.373 16.056 232.669 16.28 232.136 16.728C231.624 17.176 231.368 17.8267 231.368 18.68C231.368 19.2773 231.56 19.7787 231.944 20.184C232.349 20.568 232.84 20.888 233.416 21.144C234.013 21.3787 234.845 21.656 235.912 21.976C237.363 22.4027 238.547 22.8293 239.464 23.256C240.381 23.6827 241.171 24.3227 241.832 25.176C242.493 26.0293 242.824 27.1493 242.824 28.536C242.824 29.7307 242.515 30.84 241.896 31.864C241.277 32.888 240.371 33.7093 239.176 34.328C237.981 34.9253 236.563 35.224 234.92 35.224ZM252.788 16.28V21.88H260.308V25.432H252.788V31.352H261.268V35H248.308V12.632H261.268V16.28H252.788ZM286.043 35H281.563L271.419 19.672V35H266.939V12.632H271.419L281.563 27.992V12.632H286.043V35ZM310.599 12.664V35H306.119V25.496H296.551V35H292.071V12.664H296.551V21.848H306.119V12.664H310.599ZM330.304 30.744H321.408L319.936 35H315.232L323.264 12.632H328.48L336.512 35H331.776L330.304 30.744ZM329.088 27.16L325.856 17.816L322.624 27.16H329.088ZM348.826 35.224C347.269 35.224 345.861 34.9573 344.602 34.424C343.365 33.8907 342.384 33.1227 341.658 32.12C340.933 31.1173 340.56 29.9333 340.538 28.568H345.338C345.402 29.4853 345.722 30.2107 346.298 30.744C346.896 31.2773 347.706 31.544 348.73 31.544C349.776 31.544 350.597 31.2987 351.194 30.808C351.792 30.296 352.09 29.6347 352.09 28.824C352.09 28.1627 351.888 27.6187 351.482 27.192C351.077 26.7653 350.565 26.4347 349.946 26.2C349.349 25.944 348.517 25.6667 347.45 25.368C346 24.9413 344.816 24.5253 343.898 24.12C343.002 23.6933 342.224 23.064 341.562 22.232C340.922 21.3787 340.602 20.248 340.602 18.84C340.602 17.5173 340.933 16.3653 341.594 15.384C342.256 14.4027 343.184 13.656 344.378 13.144C345.573 12.6107 346.938 12.344 348.474 12.344C350.778 12.344 352.645 12.9093 354.074 14.04C355.525 15.1493 356.325 16.7067 356.474 18.712H351.546C351.504 17.944 351.173 17.3147 350.554 16.824C349.957 16.312 349.157 16.056 348.154 16.056C347.28 16.056 346.576 16.28 346.042 16.728C345.53 17.176 345.274 17.8267 345.274 18.68C345.274 19.2773 345.466 19.7787 345.85 20.184C346.256 20.568 346.746 20.888 347.322 21.144C347.92 21.3787 348.752 21.656 349.818 21.976C351.269 22.4027 352.453 22.8293 353.37 23.256C354.288 23.6827 355.077 24.3227 355.738 25.176C356.4 26.0293 356.73 27.1493 356.73 28.536C356.73 29.7307 356.421 30.84 355.802 31.864C355.184 32.888 354.277 33.7093 353.082 34.328C351.888 34.9253 350.469 35.224 348.826 35.224Z" fill="black"/>
</svg>
