<svg width="600" height="197" viewBox="0 0 600 197" fill="none" xmlns="http://www.w3.org/2000/svg">
<path d="M34.56 71.432C34.56 69.448 33.984 68.008 32.832 67.112C31.744 66.152 30.24 65.672 28.32 65.672C27.04 65.672 25.76 65.832 24.48 66.152C23.264 66.472 22.208 66.952 21.312 67.592V100.904C20.672 101.096 19.648 101.288 18.24 101.48C16.896 101.672 15.488 101.768 14.016 101.768C12.608 101.768 11.328 101.672 10.176 101.48C9.088 101.288 8.16 100.904 7.392 100.328C6.624 99.752 6.016 98.984 5.568 98.024C5.184 97 4.992 95.688 4.992 94.088V65.288C4.992 63.56 5.344 62.152 6.048 61.064C6.816 59.976 7.84 58.984 9.12 58.088C11.296 56.552 14.016 55.304 17.28 54.344C20.608 53.384 24.288 52.904 28.32 52.904C35.552 52.904 41.12 54.504 45.024 57.704C48.928 60.84 50.88 65.224 50.88 70.856V100.904C50.24 101.096 49.216 101.288 47.808 101.48C46.464 101.672 45.056 101.768 43.584 101.768C42.176 101.768 40.896 101.672 39.744 101.48C38.656 101.288 37.728 100.904 36.96 100.328C36.192 99.752 35.584 98.984 35.136 98.024C34.752 97 34.56 95.688 34.56 94.088V71.432ZM60.5768 41.384C60.5768 38.952 61.3768 36.904 62.9768 35.24C64.6408 33.576 66.8168 32.744 69.5048 32.744C72.1928 32.744 74.3368 33.576 75.9368 35.24C77.6008 36.904 78.4328 38.952 78.4328 41.384C78.4328 43.816 77.6008 45.864 75.9368 47.528C74.3368 49.192 72.1928 50.024 69.5048 50.024C66.8168 50.024 64.6408 49.192 62.9768 47.528C61.3768 45.864 60.5768 43.816 60.5768 41.384ZM77.6648 100.904C76.9608 101.032 75.9048 101.192 74.4968 101.384C73.1528 101.64 71.7768 101.768 70.3688 101.768C68.9608 101.768 67.6808 101.672 66.5288 101.48C65.4408 101.288 64.5128 100.904 63.7448 100.328C62.9768 99.752 62.3688 98.984 61.9208 98.024C61.5368 97 61.3448 95.688 61.3448 94.088V55.016C62.0488 54.888 63.0728 54.728 64.4168 54.536C65.8248 54.28 67.2328 54.152 68.6407 54.152C70.0488 54.152 71.2968 54.248 72.3848 54.44C73.5368 54.632 74.4968 55.016 75.2648 55.592C76.0328 56.168 76.6088 56.968 76.9928 57.992C77.4408 58.952 77.6648 60.232 77.6648 61.832V100.904ZM114.359 65.768C112.759 65.768 111.223 66.024 109.751 66.536C108.343 67.048 107.095 67.816 106.007 68.84C104.983 69.8 104.151 71.016 103.511 72.488C102.871 73.96 102.551 75.688 102.551 77.672C102.551 81.64 103.671 84.616 105.911 86.6C108.215 88.584 110.999 89.576 114.263 89.576C116.183 89.576 117.847 89.352 119.255 88.904C120.663 88.456 121.911 87.976 122.999 87.464C124.279 88.36 125.239 89.352 125.879 90.44C126.519 91.464 126.839 92.712 126.839 94.184C126.839 96.808 125.591 98.856 123.095 100.328C120.599 101.736 117.143 102.44 112.727 102.44C108.695 102.44 105.047 101.864 101.783 100.712C98.5185 99.496 95.7025 97.832 93.3345 95.72C91.0305 93.544 89.2385 90.952 87.9585 87.944C86.6785 84.936 86.0385 81.608 86.0385 77.96C86.0385 73.736 86.7105 70.056 88.0545 66.92C89.4625 63.72 91.3505 61.096 93.7185 59.048C96.0865 57 98.8065 55.464 101.879 54.44C105.015 53.416 108.311 52.904 111.767 52.904C116.375 52.904 119.927 53.736 122.423 55.4C124.919 57.064 126.167 59.208 126.167 61.832C126.167 63.048 125.879 64.2 125.303 65.288C124.727 66.312 124.055 67.208 123.287 67.976C122.199 67.464 120.887 66.984 119.351 66.536C117.815 66.024 116.151 65.768 114.359 65.768ZM180.623 92.552C180.303 95.56 179.407 97.864 177.935 99.464C176.527 101.064 174.447 101.864 171.695 101.864C169.647 101.864 167.823 101.384 166.223 100.424C164.623 99.4 162.895 97.704 161.039 95.336L151.535 83.432V100.904C150.831 101.032 149.775 101.192 148.367 101.384C147.023 101.64 145.647 101.768 144.239 101.768C142.831 101.768 141.551 101.672 140.399 101.48C139.311 101.288 138.383 100.904 137.615 100.328C136.847 99.752 136.239 98.984 135.791 98.024C135.407 97 135.215 95.688 135.215 94.088V38.504C135.919 38.312 136.943 38.12 138.287 37.928C139.695 37.672 141.103 37.544 142.511 37.544C143.919 37.544 145.167 37.64 146.255 37.832C147.407 38.024 148.367 38.408 149.135 38.984C149.903 39.56 150.479 40.36 150.863 41.384C151.311 42.344 151.535 43.624 151.535 45.224V70.568L168.047 53.672C171.375 53.672 174.031 54.408 176.015 55.88C178.063 57.352 179.087 59.208 179.087 61.448C179.087 62.408 178.927 63.304 178.607 64.136C178.287 64.904 177.775 65.704 177.071 66.536C176.431 67.368 175.567 68.264 174.479 69.224C173.455 70.12 172.239 71.176 170.831 72.392L165.263 77.192L180.623 92.552ZM217.841 71.432C217.841 69.448 217.265 68.008 216.113 67.112C215.025 66.152 213.521 65.672 211.601 65.672C210.321 65.672 209.041 65.832 207.761 66.152C206.545 66.472 205.489 66.952 204.593 67.592V100.904C203.953 101.096 202.929 101.288 201.521 101.48C200.177 101.672 198.769 101.768 197.297 101.768C195.889 101.768 194.609 101.672 193.457 101.48C192.369 101.288 191.441 100.904 190.673 100.328C189.905 99.752 189.297 98.984 188.849 98.024C188.465 97 188.273 95.688 188.273 94.088V65.288C188.273 63.56 188.625 62.152 189.329 61.064C190.097 59.976 191.121 58.984 192.401 58.088C194.577 56.552 197.297 55.304 200.561 54.344C203.889 53.384 207.569 52.904 211.601 52.904C218.833 52.904 224.401 54.504 228.305 57.704C232.209 60.84 234.161 65.224 234.161 70.856V100.904C233.521 101.096 232.497 101.288 231.089 101.48C229.745 101.672 228.337 101.768 226.865 101.768C225.457 101.768 224.177 101.672 223.025 101.48C221.937 101.288 221.009 100.904 220.241 100.328C219.473 99.752 218.865 98.984 218.417 98.024C218.033 97 217.841 95.688 217.841 94.088V71.432ZM264.21 90.632C265.298 90.632 266.482 90.536 267.762 90.344C269.106 90.088 270.098 89.768 270.738 89.384V81.704L263.826 82.28C262.034 82.408 260.562 82.792 259.41 83.432C258.258 84.072 257.682 85.032 257.682 86.312C257.682 87.592 258.162 88.648 259.122 89.48C260.146 90.248 261.842 90.632 264.21 90.632ZM263.442 52.904C266.898 52.904 270.034 53.256 272.85 53.96C275.73 54.664 278.162 55.752 280.146 57.224C282.194 58.632 283.762 60.456 284.85 62.696C285.938 64.872 286.482 67.464 286.482 70.472V91.976C286.482 93.64 286.002 95.016 285.042 96.104C284.146 97.128 283.058 98.024 281.778 98.792C277.618 101.288 271.762 102.536 264.21 102.536C260.818 102.536 257.746 102.216 254.994 101.576C252.306 100.936 249.97 99.976 247.986 98.696C246.066 97.416 244.562 95.784 243.474 93.8C242.45 91.816 241.938 89.512 241.938 86.888C241.938 82.472 243.25 79.08 245.874 76.712C248.498 74.344 252.562 72.872 258.066 72.296L270.642 70.952V70.28C270.642 68.424 269.81 67.112 268.146 66.344C266.546 65.512 264.21 65.096 261.138 65.096C258.706 65.096 256.338 65.352 254.034 65.864C251.73 66.376 249.65 67.016 247.794 67.784C246.962 67.208 246.258 66.344 245.682 65.192C245.106 63.976 244.818 62.728 244.818 61.448C244.818 59.784 245.202 58.472 245.97 57.512C246.802 56.488 248.05 55.624 249.714 54.92C251.57 54.216 253.746 53.704 256.242 53.384C258.802 53.064 261.202 52.904 263.442 52.904ZM318.829 52.904C321.453 52.904 324.013 53.288 326.509 54.056C329.069 54.76 331.277 55.848 333.133 57.32C335.053 56.04 337.197 54.984 339.565 54.152C341.997 53.32 344.909 52.904 348.301 52.904C350.733 52.904 353.101 53.224 355.405 53.864C357.773 54.504 359.853 55.528 361.645 56.936C363.501 58.28 364.973 60.104 366.061 62.408C367.149 64.648 367.693 67.4 367.693 70.664V100.904C367.053 101.096 366.029 101.288 364.621 101.48C363.277 101.672 361.869 101.768 360.397 101.768C358.989 101.768 357.709 101.672 356.557 101.48C355.469 101.288 354.541 100.904 353.773 100.328C353.005 99.752 352.397 98.984 351.949 98.024C351.565 97 351.373 95.688 351.373 94.088V71.144C351.373 69.224 350.829 67.848 349.741 67.016C348.653 66.12 347.181 65.672 345.325 65.672C344.429 65.672 343.469 65.896 342.445 66.344C341.421 66.728 340.653 67.144 340.141 67.592C340.205 67.848 340.237 68.104 340.237 68.36C340.237 68.552 340.237 68.744 340.237 68.936V100.904C339.533 101.096 338.477 101.288 337.069 101.48C335.725 101.672 334.349 101.768 332.941 101.768C331.533 101.768 330.253 101.672 329.101 101.48C328.013 101.288 327.085 100.904 326.317 100.328C325.549 99.752 324.941 98.984 324.493 98.024C324.109 97 323.917 95.688 323.917 94.088V71.144C323.917 69.224 323.309 67.848 322.093 67.016C320.941 66.12 319.533 65.672 317.869 65.672C316.717 65.672 315.725 65.864 314.893 66.248C314.061 66.568 313.357 66.888 312.781 67.208V100.904C312.141 101.096 311.117 101.288 309.709 101.48C308.365 101.672 306.957 101.768 305.485 101.768C304.077 101.768 302.797 101.672 301.645 101.48C300.557 101.288 299.629 100.904 298.861 100.328C298.093 99.752 297.485 98.984 297.037 98.024C296.653 97 296.461 95.688 296.461 94.088V65.096C296.461 63.368 296.813 61.992 297.517 60.968C298.285 59.944 299.309 58.984 300.589 58.088C302.765 56.552 305.453 55.304 308.653 54.344C311.917 53.384 315.309 52.904 318.829 52.904ZM402.32 102.536C398.544 102.536 395.024 102.024 391.76 101C388.56 99.912 385.744 98.312 383.312 96.2C380.944 94.088 379.056 91.432 377.648 88.232C376.304 85.032 375.632 81.288 375.632 77C375.632 72.776 376.304 69.16 377.648 66.152C379.056 63.08 380.88 60.584 383.12 58.664C385.36 56.68 387.92 55.24 390.8 54.344C393.68 53.384 396.624 52.904 399.632 52.904C403.024 52.904 406.096 53.416 408.848 54.44C411.664 55.464 414.064 56.872 416.048 58.664C418.096 60.456 419.664 62.6 420.752 65.096C421.904 67.592 422.48 70.312 422.48 73.256C422.48 75.432 421.872 77.096 420.656 78.248C419.44 79.4 417.744 80.136 415.568 80.456L391.856 84.008C392.56 86.12 394 87.72 396.176 88.808C398.352 89.832 400.848 90.344 403.664 90.344C406.288 90.344 408.752 90.024 411.056 89.384C413.424 88.68 415.344 87.88 416.816 86.984C417.84 87.624 418.704 88.52 419.408 89.672C420.112 90.824 420.464 92.04 420.464 93.32C420.464 96.2 419.12 98.344 416.432 99.752C414.384 100.84 412.08 101.576 409.52 101.96C406.96 102.344 404.56 102.536 402.32 102.536ZM399.632 64.808C398.096 64.808 396.752 65.064 395.6 65.576C394.512 66.088 393.616 66.76 392.912 67.592C392.208 68.36 391.664 69.256 391.28 70.28C390.96 71.24 390.768 72.232 390.704 73.256L407.12 70.568C406.928 69.288 406.224 68.008 405.008 66.728C403.792 65.448 402 64.808 399.632 64.808Z" fill="#004F4D"/>
<path d="M111.744 119.904C115.392 119.904 118.688 120.384 121.632 121.344C124.64 122.24 127.168 123.424 129.216 124.896C130.496 125.792 131.488 126.784 132.192 127.872C132.96 128.96 133.344 130.368 133.344 132.096V165.696C133.344 169.088 132.704 172 131.424 174.432C130.144 176.928 128.384 178.976 126.144 180.576C123.968 182.24 121.376 183.456 118.368 184.224C115.424 184.992 112.256 185.376 108.864 185.376C103.04 185.376 98.464 184.576 95.136 182.976C91.808 181.44 90.144 178.912 90.144 175.392C90.144 173.92 90.432 172.608 91.008 171.456C91.648 170.368 92.352 169.536 93.12 168.96C94.976 169.984 97.056 170.848 99.36 171.552C101.728 172.256 104.16 172.608 106.656 172.608C110.112 172.608 112.864 172.032 114.912 170.88C116.96 169.728 117.984 167.872 117.984 165.312V163.776C115.36 164.928 112.16 165.504 108.384 165.504C105.504 165.504 102.752 165.088 100.128 164.256C97.568 163.36 95.296 162.016 93.312 160.224C91.392 158.368 89.824 156 88.608 153.12C87.456 150.24 86.88 146.816 86.88 142.848C86.88 138.944 87.488 135.552 88.704 132.672C89.984 129.792 91.712 127.424 93.888 125.568C96.128 123.648 98.752 122.24 101.76 121.344C104.832 120.384 108.16 119.904 111.744 119.904ZM117.696 133.824C117.248 133.568 116.576 133.312 115.68 133.056C114.848 132.8 113.792 132.672 112.512 132.672C109.376 132.672 107.008 133.568 105.408 135.36C103.872 137.088 103.104 139.584 103.104 142.848C103.104 146.56 103.872 149.248 105.408 150.912C107.008 152.512 109.024 153.312 111.456 153.312C114.08 153.312 116.16 152.704 117.696 151.488V133.824ZM168.133 169.536C164.357 169.536 160.837 169.024 157.573 168C154.373 166.912 151.557 165.312 149.125 163.2C146.757 161.088 144.869 158.432 143.461 155.232C142.117 152.032 141.445 148.288 141.445 144C141.445 139.776 142.117 136.16 143.461 133.152C144.869 130.08 146.693 127.584 148.933 125.664C151.173 123.68 153.733 122.24 156.613 121.344C159.493 120.384 162.437 119.904 165.445 119.904C168.837 119.904 171.909 120.416 174.661 121.44C177.477 122.464 179.877 123.872 181.861 125.664C183.909 127.456 185.477 129.6 186.565 132.096C187.717 134.592 188.293 137.312 188.293 140.256C188.293 142.432 187.685 144.096 186.469 145.248C185.253 146.4 183.557 147.136 181.381 147.456L157.669 151.008C158.373 153.12 159.813 154.72 161.989 155.808C164.165 156.832 166.661 157.344 169.477 157.344C172.101 157.344 174.565 157.024 176.869 156.384C179.237 155.68 181.157 154.88 182.629 153.984C183.653 154.624 184.517 155.52 185.221 156.672C185.925 157.824 186.277 159.04 186.277 160.32C186.277 163.2 184.933 165.344 182.245 166.752C180.197 167.84 177.893 168.576 175.333 168.96C172.773 169.344 170.373 169.536 168.133 169.536ZM165.445 131.808C163.909 131.808 162.565 132.064 161.413 132.576C160.325 133.088 159.429 133.76 158.725 134.592C158.021 135.36 157.477 136.256 157.093 137.28C156.773 138.24 156.581 139.232 156.517 140.256L172.933 137.568C172.741 136.288 172.037 135.008 170.821 133.728C169.605 132.448 167.813 131.808 165.445 131.808ZM225.716 138.432C225.716 136.448 225.14 135.008 223.988 134.112C222.9 133.152 221.396 132.672 219.476 132.672C218.196 132.672 216.916 132.832 215.636 133.152C214.42 133.472 213.364 133.952 212.468 134.592V167.904C211.828 168.096 210.804 168.288 209.396 168.48C208.052 168.672 206.644 168.768 205.172 168.768C203.764 168.768 202.484 168.672 201.332 168.48C200.244 168.288 199.316 167.904 198.548 167.328C197.78 166.752 197.172 165.984 196.724 165.024C196.34 164 196.148 162.688 196.148 161.088V132.288C196.148 130.56 196.5 129.152 197.204 128.064C197.972 126.976 198.996 125.984 200.276 125.088C202.452 123.552 205.172 122.304 208.436 121.344C211.764 120.384 215.444 119.904 219.476 119.904C226.708 119.904 232.276 121.504 236.18 124.704C240.084 127.84 242.036 132.224 242.036 137.856V167.904C241.396 168.096 240.372 168.288 238.964 168.48C237.62 168.672 236.212 168.768 234.74 168.768C233.332 168.768 232.052 168.672 230.9 168.48C229.812 168.288 228.884 167.904 228.116 167.328C227.348 166.752 226.74 165.984 226.292 165.024C225.908 164 225.716 162.688 225.716 161.088V138.432ZM276.789 169.536C273.013 169.536 269.493 169.024 266.229 168C263.029 166.912 260.213 165.312 257.781 163.2C255.413 161.088 253.525 158.432 252.117 155.232C250.773 152.032 250.101 148.288 250.101 144C250.101 139.776 250.773 136.16 252.117 133.152C253.525 130.08 255.349 127.584 257.589 125.664C259.829 123.68 262.389 122.24 265.269 121.344C268.149 120.384 271.093 119.904 274.101 119.904C277.493 119.904 280.565 120.416 283.317 121.44C286.133 122.464 288.533 123.872 290.517 125.664C292.565 127.456 294.133 129.6 295.221 132.096C296.373 134.592 296.949 137.312 296.949 140.256C296.949 142.432 296.341 144.096 295.125 145.248C293.909 146.4 292.213 147.136 290.037 147.456L266.325 151.008C267.029 153.12 268.469 154.72 270.645 155.808C272.821 156.832 275.317 157.344 278.133 157.344C280.757 157.344 283.221 157.024 285.525 156.384C287.893 155.68 289.813 154.88 291.285 153.984C292.309 154.624 293.173 155.52 293.877 156.672C294.581 157.824 294.933 159.04 294.933 160.32C294.933 163.2 293.589 165.344 290.901 166.752C288.853 167.84 286.549 168.576 283.989 168.96C281.429 169.344 279.029 169.536 276.789 169.536ZM274.101 131.808C272.565 131.808 271.221 132.064 270.069 132.576C268.981 133.088 268.085 133.76 267.381 134.592C266.677 135.36 266.133 136.256 265.749 137.28C265.429 138.24 265.237 139.232 265.173 140.256L281.589 137.568C281.397 136.288 280.693 135.008 279.477 133.728C278.261 132.448 276.469 131.808 274.101 131.808ZM321.125 167.904C320.485 168.096 319.461 168.288 318.053 168.48C316.709 168.672 315.301 168.768 313.829 168.768C312.421 168.768 311.141 168.672 309.989 168.48C308.901 168.288 307.973 167.904 307.205 167.328C306.437 166.752 305.829 165.984 305.381 165.024C304.997 164 304.805 162.688 304.805 161.088V132.288C304.805 130.816 305.061 129.568 305.573 128.544C306.149 127.456 306.949 126.496 307.973 125.664C308.997 124.832 310.245 124.096 311.717 123.456C313.253 122.752 314.885 122.144 316.613 121.632C318.341 121.12 320.133 120.736 321.989 120.48C323.845 120.16 325.701 120 327.557 120C330.629 120 333.061 120.608 334.853 121.824C336.645 122.976 337.541 124.896 337.541 127.584C337.541 128.48 337.413 129.376 337.157 130.272C336.901 131.104 336.581 131.872 336.197 132.576C334.853 132.576 333.477 132.64 332.069 132.768C330.661 132.896 329.285 133.088 327.941 133.344C326.597 133.6 325.317 133.888 324.101 134.208C322.949 134.464 321.957 134.784 321.125 135.168V167.904ZM362.835 157.632C363.923 157.632 365.107 157.536 366.387 157.344C367.731 157.088 368.723 156.768 369.363 156.384V148.704L362.451 149.28C360.659 149.408 359.187 149.792 358.035 150.432C356.883 151.072 356.307 152.032 356.307 153.312C356.307 154.592 356.787 155.648 357.747 156.48C358.771 157.248 360.467 157.632 362.835 157.632ZM362.067 119.904C365.523 119.904 368.659 120.256 371.475 120.96C374.355 121.664 376.787 122.752 378.771 124.224C380.819 125.632 382.387 127.456 383.475 129.696C384.563 131.872 385.107 134.464 385.107 137.472V158.976C385.107 160.64 384.627 162.016 383.667 163.104C382.771 164.128 381.683 165.024 380.403 165.792C376.243 168.288 370.387 169.536 362.835 169.536C359.443 169.536 356.371 169.216 353.619 168.576C350.931 167.936 348.595 166.976 346.611 165.696C344.691 164.416 343.187 162.784 342.099 160.8C341.075 158.816 340.563 156.512 340.563 153.888C340.563 149.472 341.875 146.08 344.499 143.712C347.123 141.344 351.187 139.872 356.691 139.296L369.267 137.952V137.28C369.267 135.424 368.435 134.112 366.771 133.344C365.171 132.512 362.835 132.096 359.763 132.096C357.331 132.096 354.963 132.352 352.659 132.864C350.355 133.376 348.275 134.016 346.419 134.784C345.587 134.208 344.883 133.344 344.307 132.192C343.731 130.976 343.443 129.728 343.443 128.448C343.443 126.784 343.827 125.472 344.595 124.512C345.427 123.488 346.675 122.624 348.339 121.92C350.195 121.216 352.371 120.704 354.867 120.384C357.427 120.064 359.827 119.904 362.067 119.904ZM411.406 151.968C411.406 153.632 411.918 154.816 412.942 155.52C414.03 156.224 415.534 156.576 417.454 156.576C418.414 156.576 419.406 156.512 420.43 156.384C421.454 156.192 422.35 155.968 423.118 155.712C423.694 156.416 424.174 157.216 424.558 158.112C425.006 158.944 425.23 159.968 425.23 161.184C425.23 163.616 424.302 165.6 422.446 167.136C420.654 168.672 417.454 169.44 412.846 169.44C407.214 169.44 402.862 168.16 399.79 165.6C396.782 163.04 395.278 158.88 395.278 153.12V112.032C395.982 111.84 396.974 111.648 398.254 111.456C399.598 111.2 401.006 111.072 402.478 111.072C405.294 111.072 407.47 111.584 409.006 112.608C410.606 113.568 411.406 115.648 411.406 118.848V124.992H423.982C424.366 125.696 424.718 126.592 425.038 127.68C425.422 128.704 425.614 129.856 425.614 131.136C425.614 133.376 425.102 135.008 424.078 136.032C423.118 136.992 421.806 137.472 420.142 137.472H411.406V151.968ZM481.249 144.672C481.249 148.64 480.641 152.192 479.425 155.328C478.209 158.4 476.481 160.992 474.241 163.104C472.065 165.216 469.441 166.816 466.369 167.904C463.297 168.992 459.873 169.536 456.097 169.536C452.321 169.536 448.897 168.96 445.825 167.808C442.753 166.656 440.097 165.024 437.857 162.912C435.681 160.736 433.985 158.112 432.769 155.04C431.553 151.968 430.945 148.512 430.945 144.672C430.945 140.896 431.553 137.472 432.769 134.4C433.985 131.328 435.681 128.736 437.857 126.624C440.097 124.448 442.753 122.784 445.825 121.632C448.897 120.48 452.321 119.904 456.097 119.904C459.873 119.904 463.297 120.512 466.369 121.728C469.441 122.88 472.065 124.544 474.241 126.72C476.481 128.832 478.209 131.424 479.425 134.496C480.641 137.568 481.249 140.96 481.249 144.672ZM447.649 144.672C447.649 148.576 448.385 151.584 449.857 153.696C451.393 155.744 453.505 156.768 456.193 156.768C458.881 156.768 460.929 155.712 462.337 153.6C463.809 151.488 464.545 148.512 464.545 144.672C464.545 140.832 463.809 137.888 462.337 135.84C460.865 133.728 458.785 132.672 456.097 132.672C453.409 132.672 451.329 133.728 449.857 135.84C448.385 137.888 447.649 140.832 447.649 144.672ZM505.531 167.904C504.891 168.096 503.867 168.288 502.459 168.48C501.115 168.672 499.707 168.768 498.235 168.768C496.827 168.768 495.547 168.672 494.395 168.48C493.307 168.288 492.379 167.904 491.611 167.328C490.843 166.752 490.235 165.984 489.787 165.024C489.403 164 489.211 162.688 489.211 161.088V132.288C489.211 130.816 489.467 129.568 489.979 128.544C490.555 127.456 491.355 126.496 492.379 125.664C493.403 124.832 494.651 124.096 496.123 123.456C497.659 122.752 499.291 122.144 501.019 121.632C502.747 121.12 504.539 120.736 506.395 120.48C508.251 120.16 510.107 120 511.963 120C515.035 120 517.467 120.608 519.259 121.824C521.051 122.976 521.947 124.896 521.947 127.584C521.947 128.48 521.819 129.376 521.563 130.272C521.307 131.104 520.987 131.872 520.603 132.576C519.259 132.576 517.883 132.64 516.475 132.768C515.067 132.896 513.691 133.088 512.347 133.344C511.003 133.6 509.723 133.888 508.507 134.208C507.355 134.464 506.363 134.784 505.531 135.168V167.904Z" fill="#00747C"/>
</svg>
